<?xml version="1.0" standalone="no"?>
<!DOCTYPE svg PUBLIC "-//W3C//DTD SVG 20010904//EN"
 "http://www.w3.org/TR/2001/REC-SVG-20010904/DTD/svg10.dtd">
<svg version="1.0" xmlns="http://www.w3.org/2000/svg"
 width="512.000000pt" height="512.000000pt" viewBox="0 0 512.000000 512.000000"
 preserveAspectRatio="xMidYMid meet">
<metadata>
Created by potrace 1.14, written by Peter Selinger 2001-2017
</metadata>
<g transform="translate(0.000000,512.000000) scale(0.100000,-0.100000)"
fill="#000000" stroke="none">
<path d="M399 4864 c-64 -19 -125 -82 -144 -147 -13 -44 -15 -291 -15 -1984
l0 -1932 35 24 c63 42 128 58 221 53 70 -4 94 -10 154 -39 l70 -35 0 1931 c0
2158 6 1997 -71 2074 -65 65 -155 85 -250 55z m135 -1930 l26 -27 0 -667 0
-667 -26 -27 c-35 -34 -73 -34 -108 0 l-26 27 0 667 0 667 26 27 c16 15 38 26
54 26 16 0 38 -11 54 -26z m0 -1600 c25 -26 26 -31 26 -134 0 -103 -1 -108
-26 -134 -16 -15 -38 -26 -54 -26 -16 0 -38 11 -54 26 -25 26 -26 31 -26 134
0 103 1 108 26 134 16 15 38 26 54 26 16 0 38 -11 54 -26z"/>
<path d="M1244 4868 c-12 -5 -27 -21 -33 -34 -8 -18 -11 -326 -11 -1080 l0
-1056 29 -29 29 -29 496 0 c341 0 503 3 519 11 14 6 30 22 36 36 16 34 16
2112 0 2146 -6 14 -22 30 -36 36 -32 15 -999 14 -1029 -1z m890 -174 l26 -27
0 -187 0 -187 -26 -27 -27 -26 -347 0 -347 0 -27 26 -26 27 0 187 0 187 26 27
27 26 347 0 347 0 27 -26z m-640 -640 c25 -26 26 -31 26 -134 0 -103 -1 -108
-26 -134 -16 -15 -38 -26 -54 -26 -16 0 -38 11 -54 26 -25 26 -26 31 -26 134
0 103 1 108 26 134 16 15 38 26 54 26 16 0 38 -11 54 -26z m320 0 c25 -26 26
-31 26 -134 0 -103 -1 -108 -26 -134 -16 -15 -38 -26 -54 -26 -16 0 -38 11
-54 26 -25 26 -26 31 -26 134 0 103 1 108 26 134 16 15 38 26 54 26 16 0 38
-11 54 -26z m320 0 c25 -26 26 -31 26 -134 0 -103 -1 -108 -26 -134 -16 -15
-38 -26 -54 -26 -16 0 -38 11 -54 26 -25 26 -26 31 -26 134 0 103 1 108 26
134 16 15 38 26 54 26 16 0 38 -11 54 -26z m-640 -480 c25 -26 26 -31 26 -134
0 -103 -1 -108 -26 -134 -16 -15 -38 -26 -54 -26 -16 0 -38 11 -54 26 -25 26
-26 31 -26 134 0 103 1 108 26 134 16 15 38 26 54 26 16 0 38 -11 54 -26z
m320 0 c25 -26 26 -31 26 -134 0 -103 -1 -108 -26 -134 -16 -15 -38 -26 -54
-26 -16 0 -38 11 -54 26 -25 26 -26 31 -26 134 0 103 1 108 26 134 16 15 38
26 54 26 16 0 38 -11 54 -26z m320 0 l26 -27 0 -347 0 -347 -26 -27 c-16 -15
-38 -26 -54 -26 -16 0 -38 11 -54 26 l-26 27 0 347 0 347 26 27 c16 15 38 26
54 26 16 0 38 -11 54 -26z m-640 -480 c25 -26 26 -31 26 -134 0 -103 -1 -108
-26 -134 -16 -15 -38 -26 -54 -26 -16 0 -38 11 -54 26 -25 26 -26 31 -26 134
0 103 1 108 26 134 16 15 38 26 54 26 16 0 38 -11 54 -26z m320 0 c25 -26 26
-31 26 -134 0 -103 -1 -108 -26 -134 -16 -15 -38 -26 -54 -26 -16 0 -38 11
-54 26 -25 26 -26 31 -26 134 0 103 1 108 26 134 16 15 38 26 54 26 16 0 38
-11 54 -26z"/>
<path d="M880 2490 l0 -2071 -21 -61 c-11 -34 -30 -75 -40 -90 l-20 -28 2040
0 2041 0 0 2160 0 2160 -1200 0 -1200 0 -2 -958 -3 -959 -30 -49 c-19 -30 -49
-60 -79 -79 l-49 -30 -557 0 -557 0 -49 30 c-30 19 -60 49 -79 79 l-30 49 -3
959 -2 958 -80 0 -80 0 0 -2070z m3814 1884 c15 -16 26 -38 26 -54 0 -16 -11
-38 -26 -54 -25 -24 -33 -26 -113 -26 -73 0 -126 -10 -357 -67 l-270 -67 0
-106 0 -106 271 -67 c230 -57 283 -67 356 -67 80 0 88 -2 113 -26 15 -16 26
-38 26 -54 0 -16 -11 -38 -26 -54 -25 -25 -32 -26 -126 -26 -86 0 -128 7 -326
55 -125 31 -257 63 -294 71 l-67 15 -37 -41 c-45 -50 -128 -100 -166 -100 -36
0 -68 32 -68 69 0 45 9 59 51 83 21 12 39 25 39 28 0 4 -96 30 -213 59 l-213
53 -59 -59 c-80 -79 -135 -96 -233 -71 -35 9 -61 25 -99 64 -29 29 -53 60 -53
68 0 13 -13 16 -66 16 -59 0 -68 3 -95 29 -36 36 -37 73 -4 106 21 22 33 25
90 25 47 0 65 4 65 13 0 29 63 96 112 121 71 36 145 35 217 0 45 -23 72 -50
107 -112 1 -2 273 64 408 99 l39 10 -49 32 c-40 26 -50 38 -52 65 -4 40 19 79
53 88 35 9 108 -31 169 -92 l52 -52 289 78 c273 74 296 78 396 79 102 1 107 0
133 -25z m-1277 -956 l23 -21 0 -1472 0 -1472 -26 -27 -27 -26 -1147 0 -1148
0 -27 32 c-21 24 -25 38 -21 61 6 28 2207 2874 2263 2925 31 29 79 29 110 0z
m800 -10 c12 -13 94 -168 182 -346 l161 -323 -2 -1017 -3 -1017 -24 -60 c-34
-83 -133 -183 -216 -216 -85 -33 -225 -33 -310 0 -83 33 -182 133 -216 216
l-24 60 -3 1017 -2 1017 169 340 c94 186 176 341 183 344 34 14 85 6 105 -15z"/>
<path d="M3003 4068 c-55 -27 -50 -114 8 -138 89 -37 151 99 63 139 -30 13
-42 13 -71 -1z"/>
<path d="M3658 4032 c-60 -15 -108 -29 -108 -32 0 -3 53 -18 117 -33 132 -31
135 -30 131 43 -2 31 -8 45 -18 46 -8 1 -63 -10 -122 -24z"/>
<path d="M2724 2413 c-303 -390 -752 -966 -997 -1280 l-446 -573 200 0 199 0
0 54 c0 44 4 58 26 80 35 34 73 34 108 0 22 -22 26 -36 26 -80 l0 -54 80 0 80
0 0 54 c0 44 4 58 26 80 35 34 73 34 108 0 22 -22 26 -36 26 -80 l0 -54 80 0
80 0 0 54 c0 44 4 58 26 80 16 15 38 26 54 26 16 0 38 -11 54 -26 22 -22 26
-36 26 -80 l0 -54 80 0 80 0 0 54 c0 44 4 58 26 80 35 34 73 34 108 0 22 -22
26 -36 26 -80 l0 -54 80 0 80 0 0 54 c0 44 4 58 26 80 35 34 73 34 108 0 22
-22 26 -36 26 -80 l0 -54 80 0 80 0 0 80 0 80 -54 0 c-44 0 -58 4 -80 26 -15
16 -26 38 -26 54 0 16 11 38 26 54 22 22 36 26 80 26 l54 0 0 80 0 80 -54 0
c-44 0 -58 4 -80 26 -15 16 -26 38 -26 54 0 16 11 38 26 54 22 22 36 26 80 26
l54 0 0 80 0 80 -54 0 c-44 0 -58 4 -80 26 -15 16 -26 38 -26 54 0 16 11 38
26 54 22 22 36 26 80 26 l54 0 0 80 0 80 -54 0 c-44 0 -58 4 -80 26 -15 16
-26 38 -26 54 0 16 11 38 26 54 22 22 36 26 80 26 l54 0 0 80 0 80 -54 0 c-44
0 -58 4 -80 26 -15 16 -26 38 -26 54 0 16 11 38 26 54 22 22 36 26 80 26 l54
0 0 80 0 80 -54 0 c-44 0 -58 4 -80 26 -15 16 -26 38 -26 54 0 16 11 38 26 54
22 22 36 26 80 26 l54 0 0 80 0 80 -54 0 c-44 0 -58 4 -80 26 -15 16 -26 38
-26 54 0 16 11 38 26 54 22 22 36 26 80 26 l54 0 0 160 c0 88 -1 160 -3 160
-1 0 -250 -318 -553 -707z m213 -435 l23 -21 0 -512 0 -512 -26 -27 -27 -26
-384 0 c-227 0 -392 4 -402 10 -23 12 -45 64 -39 88 6 22 720 979 750 1005 28
24 77 22 105 -5z"/>
<path d="M2556 1355 l-236 -315 240 0 240 0 0 315 c0 173 -2 315 -4 315 -2 0
-110 -142 -240 -315z"/>
<path d="M4062 2985 l-92 -185 190 0 190 0 -92 185 c-51 102 -95 185 -98 185
-3 0 -47 -83 -98 -185z"/>
<path d="M3920 2000 l0 -640 80 0 80 0 0 640 0 640 -80 0 -80 0 0 -640z"/>
<path d="M4240 2000 l0 -640 80 0 80 0 0 640 0 640 -80 0 -80 0 0 -640z"/>
<path d="M3920 1120 l0 -80 240 0 240 0 0 80 0 80 -240 0 -240 0 0 -80z"/>
<path d="M3920 827 c0 -187 143 -303 312 -253 106 30 168 124 168 253 l0 53
-240 0 -240 0 0 -53z"/>
<path d="M420 711 c-112 -36 -174 -119 -174 -231 0 -137 96 -234 234 -234 138
0 234 97 234 234 0 95 -44 169 -128 212 -43 22 -128 32 -166 19z"/>
</g>
</svg>
